<svg xmlns="http://www.w3.org/2000/svg" width="1440" height="1200" viewBox="0 0 1440 1200">
<defs>
  <marker id="arrow" viewBox="0 0 10 10" refX="9" refY="5" markerWidth="7" markerHeight="7" orient="auto-start-reverse">
    <path d="M 0 0 L 10 5 L 0 10 z" fill="#1C1A17"/>
  </marker>
  <marker id="arrowred" viewBox="0 0 10 10" refX="9" refY="5" markerWidth="7" markerHeight="7" orient="auto-start-reverse">
    <path d="M 0 0 L 10 5 L 0 10 z" fill="#E53935"/>
  </marker>
  <marker id="arrowmut" viewBox="0 0 10 10" refX="9" refY="5" markerWidth="7" markerHeight="7" orient="auto-start-reverse">
    <path d="M 0 0 L 10 5 L 0 10 z" fill="#6E6A62"/>
  </marker>
  <marker id="open" viewBox="0 0 10 10" refX="9" refY="5" markerWidth="9" markerHeight="9" orient="auto-start-reverse">
    <path d="M 0 0 L 10 5 L 0 10" fill="none" stroke="#1C1A17" stroke-width="1.6"/>
  </marker>
  <marker id="openred" viewBox="0 0 10 10" refX="9" refY="5" markerWidth="9" markerHeight="9" orient="auto-start-reverse">
    <path d="M 0 0 L 10 5 L 0 10" fill="none" stroke="#E53935" stroke-width="1.6"/>
  </marker>
  <marker id="diamond" viewBox="0 0 12 12" refX="11" refY="6" markerWidth="11" markerHeight="11" orient="auto-start-reverse">
    <path d="M 0 6 L 6 2 L 12 6 L 6 10 z" fill="#FFFFFF" stroke="#1C1A17" stroke-width="1.3"/>
  </marker>
  <marker id="dot" viewBox="0 0 8 8" refX="4" refY="4" markerWidth="6" markerHeight="6">
    <circle cx="4" cy="4" r="3.4" fill="#1C1A17"/>
  </marker>
  
</defs><rect width="1440" height="1200" fill="#FFFFFF"/><polygon points="22,40 198,40 198,82 188,92 22,92" fill="#F6F4EF" stroke="#1C1A17" stroke-width="1.7"/><text x="110" y="64" font-family="'IBM Plex Sans','Helvetica Neue',Arial,sans-serif" font-size="13" fill="#1C1A17" text-anchor="middle" font-weight="700">Client</text><text x="110" y="80" font-family="'IBM Plex Sans','Helvetica Neue',Arial,sans-serif" font-size="10" fill="#A39D91" text-anchor="middle" font-weight="400">automobiliste</text><line x1="110" y1="92" x2="110" y2="1150" stroke="#A39D91" stroke-width="1.1" stroke-dasharray="6 5"/><polygon points="242,40 418,40 418,82 408,92 242,92" fill="#F6F4EF" stroke="#1C1A17" stroke-width="1.7"/><text x="330" y="64" font-family="'IBM Plex Sans','Helvetica Neue',Arial,sans-serif" font-size="13" fill="#1C1A17" text-anchor="middle" font-weight="700">App mobile</text><text x="330" y="80" font-family="'IBM Plex Sans','Helvetica Neue',Arial,sans-serif" font-size="10" fill="#A39D91" text-anchor="middle" font-weight="400">React Native</text><line x1="330" y1="92" x2="330" y2="1150" stroke="#A39D91" stroke-width="1.1" stroke-dasharray="6 5"/><polygon points="492,40 668,40 668,82 658,92 492,92" fill="#F6F4EF" stroke="#1C1A17" stroke-width="1.7"/><text x="580" y="64" font-family="'IBM Plex Sans','Helvetica Neue',Arial,sans-serif" font-size="13" fill="#1C1A17" text-anchor="middle" font-weight="700">API GeoCras</text><text x="580" y="80" font-family="'IBM Plex Sans','Helvetica Neue',Arial,sans-serif" font-size="10" fill="#A39D91" text-anchor="middle" font-weight="400">Express</text><line x1="580" y1="92" x2="580" y2="1150" stroke="#A39D91" stroke-width="1.1" stroke-dasharray="6 5"/><polygon points="712,40 888,40 888,82 878,92 712,92" fill="#F6F4EF" stroke="#1C1A17" stroke-width="1.7"/><text x="800" y="64" font-family="'IBM Plex Sans','Helvetica Neue',Arial,sans-serif" font-size="13" fill="#1C1A17" text-anchor="middle" font-weight="700">PostGIS</text><text x="800" y="80" font-family="'IBM Plex Sans','Helvetica Neue',Arial,sans-serif" font-size="10" fill="#A39D91" text-anchor="middle" font-weight="400">PostgreSQL</text><line x1="800" y1="92" x2="800" y2="1150" stroke="#A39D91" stroke-width="1.1" stroke-dasharray="6 5"/><polygon points="912,40 1088,40 1088,82 1078,92 912,92" fill="#F6F4EF" stroke="#1C1A17" stroke-width="1.7"/><text x="1000" y="64" font-family="'IBM Plex Sans','Helvetica Neue',Arial,sans-serif" font-size="13" fill="#1C1A17" text-anchor="middle" font-weight="700">Socket.io</text><text x="1000" y="80" font-family="'IBM Plex Sans','Helvetica Neue',Arial,sans-serif" font-size="10" fill="#A39D91" text-anchor="middle" font-weight="400">temps réel</text><line x1="1000" y1="92" x2="1000" y2="1150" stroke="#A39D91" stroke-width="1.1" stroke-dasharray="6 5"/><polygon points="1152,40 1328,40 1328,82 1318,92 1152,92" fill="#F6F4EF" stroke="#1C1A17" stroke-width="1.7"/><text x="1240" y="64" font-family="'IBM Plex Sans','Helvetica Neue',Arial,sans-serif" font-size="13" fill="#1C1A17" text-anchor="middle" font-weight="700">App garagiste</text><text x="1240" y="80" font-family="'IBM Plex Sans','Helvetica Neue',Arial,sans-serif" font-size="10" fill="#A39D91" text-anchor="middle" font-weight="400">React Native</text><line x1="1240" y1="92" x2="1240" y2="1150" stroke="#A39D91" stroke-width="1.1" stroke-dasharray="6 5"/><line x1="40" y1="112" x2="1400" y2="112" stroke="#D9D4C9" stroke-width="1"/><rect x="40" y="103" width="14" height="2.2" rx="0" fill="#E53935" stroke="none" stroke-width="0"/><text x="62" y="108" font-family="'IBM Plex Sans','Helvetica Neue',Arial,sans-serif" font-size="10.5" fill="#6E6A62" text-anchor="start" font-weight="700" letter-spacing="1.3">DÉCLARATION DE LA PANNE</text><rect x="324.5" y="126" width="11" height="250" rx="0" fill="#FFFFFF" stroke="#1C1A17" stroke-width="1.4"/><rect x="574.5" y="168" width="11" height="190" rx="0" fill="#FFFFFF" stroke="#1C1A17" stroke-width="1.4"/><rect x="794.5" y="196" width="11" height="60" rx="0" fill="#FFFFFF" stroke="#1C1A17" stroke-width="1.4"/><line x1="110" y1="140" x2="330" y2="140" stroke="#1C1A17" stroke-width="1.5" marker-end="url(#arrow)"/><text x="220.0" y="132" font-family="'IBM Plex Sans','Helvetica Neue',Arial,sans-serif" font-size="11.5" fill="#1C1A17" text-anchor="middle" font-weight="400">appuie sur SOS</text><line x1="330" y1="158" x2="330" y2="158" stroke="#1C1A17" stroke-width="1.5" marker-end="url(#arrow)"/><path d="M 336 158 L 394 158 L 394 184 L 340 184" fill="none" stroke="#1C1A17" stroke-width="1.4" marker-end="url(#arrow)"/><text x="402" y="164" font-family="'IBM Plex Sans','Helvetica Neue',Arial,sans-serif" font-size="11.5" fill="#1C1A17" text-anchor="start" font-weight="400">acquisition GPS</text><text x="402" y="180" font-family="'IBM Plex Sans','Helvetica Neue',Arial,sans-serif" font-size="10" fill="#A39D91" text-anchor="start" font-weight="400" font-style="italic">filtre EMA, rejet des sauts</text><line x1="330" y1="210" x2="580" y2="210" stroke="#1C1A17" stroke-width="1.5" marker-end="url(#arrow)"/><text x="455.0" y="202" font-family="'IBM Plex Mono','DejaVu Sans Mono',monospace" font-size="11.5" fill="#1C1A17" text-anchor="middle" font-weight="400">POST /requests</text><text x="455.0" y="224" font-family="'IBM Plex Sans','Helvetica Neue',Arial,sans-serif" font-size="10" fill="#A39D91" text-anchor="middle" font-weight="400" font-style="italic">véhicule, panne, urgence, position</text><line x1="580" y1="240" x2="800" y2="240" stroke="#1C1A17" stroke-width="1.5" marker-end="url(#arrow)"/><text x="690.0" y="232" font-family="'IBM Plex Sans','Helvetica Neue',Arial,sans-serif" font-size="11.5" fill="#1C1A17" text-anchor="middle" font-weight="400">ST_DWithin + ROW_NUMBER()</text><text x="690.0" y="254" font-family="'IBM Plex Sans','Helvetica Neue',Arial,sans-serif" font-size="10" fill="#A39D91" text-anchor="middle" font-weight="400" font-style="italic">rayon 10 km, tri demandé</text><line x1="800" y1="268" x2="580" y2="268" stroke="#1C1A17" stroke-width="1.5" stroke-dasharray="6 4" marker-end="url(#arrow)"/><text x="690.0" y="260" font-family="'IBM Plex Sans','Helvetica Neue',Arial,sans-serif" font-size="11.5" fill="#1C1A17" text-anchor="middle" font-weight="400">garages classés 1..n</text><line x1="580" y1="296" x2="330" y2="296" stroke="#1C1A17" stroke-width="1.5" marker-end="url(#arrow)"/><text x="455.0" y="288" font-family="'IBM Plex Sans','Helvetica Neue',Arial,sans-serif" font-size="11.5" fill="#1C1A17" text-anchor="middle" font-weight="400">201 · demande + candidats</text><text x="455.0" y="310" font-family="'IBM Plex Sans','Helvetica Neue',Arial,sans-serif" font-size="10" fill="#A39D91" text-anchor="middle" font-weight="400" font-style="italic">un seul aller-retour</text><line x1="40" y1="340" x2="1400" y2="340" stroke="#D9D4C9" stroke-width="1"/><rect x="40" y="331" width="14" height="2.2" rx="0" fill="#E53935" stroke="none" stroke-width="0"/><text x="62" y="336" font-family="'IBM Plex Sans','Helvetica Neue',Arial,sans-serif" font-size="10.5" fill="#6E6A62" text-anchor="start" font-weight="700" letter-spacing="1.3">CHOIX DU GARAGE</text><rect x="324.5" y="350" width="11" height="150" rx="0" fill="#FFFFFF" stroke="#1C1A17" stroke-width="1.4"/><rect x="574.5" y="384" width="11" height="116" rx="0" fill="#FFFFFF" stroke="#1C1A17" stroke-width="1.4"/><rect x="994.5" y="412" width="11" height="70" rx="0" fill="#FFFFFF" stroke="#1C1A17" stroke-width="1.4"/><rect x="1234.5" y="424" width="11" height="44" rx="0" fill="#FFFFFF" stroke="#1C1A17" stroke-width="1.4"/><line x1="330" y1="362" x2="110" y2="362" stroke="#1C1A17" stroke-width="1.5" marker-end="url(#arrow)"/><text x="220.0" y="354" font-family="'IBM Plex Sans','Helvetica Neue',Arial,sans-serif" font-size="11.5" fill="#1C1A17" text-anchor="middle" font-weight="400">liste et carte numérotées</text><line x1="110" y1="386" x2="330" y2="386" stroke="#1C1A17" stroke-width="1.5" marker-end="url(#arrow)"/><text x="220.0" y="378" font-family="'IBM Plex Sans','Helvetica Neue',Arial,sans-serif" font-size="11.5" fill="#1C1A17" text-anchor="middle" font-weight="400">choisit le garage n° 2</text><line x1="330" y1="412" x2="580" y2="412" stroke="#1C1A17" stroke-width="1.5" marker-end="url(#arrow)"/><text x="455.0" y="404" font-family="'IBM Plex Mono','DejaVu Sans Mono',monospace" font-size="11.5" fill="#1C1A17" text-anchor="middle" font-weight="400">POST /requests/:id/select</text><line x1="580" y1="438" x2="1000" y2="438" stroke="#1C1A17" stroke-width="1.5" marker-end="url(#arrow)"/><text x="790.0" y="430" font-family="'IBM Plex Mono','DejaVu Sans Mono',monospace" font-size="11.5" fill="#1C1A17" text-anchor="middle" font-weight="400">emit garage:jobs</text><text x="790.0" y="452" font-family="'IBM Plex Sans','Helvetica Neue',Arial,sans-serif" font-size="10" fill="#A39D91" text-anchor="middle" font-weight="400" font-style="italic">room du propriétaire</text><line x1="1000" y1="462" x2="1240" y2="462" stroke="#1C1A17" stroke-width="1.5" stroke-dasharray="6 4" marker-end="url(#arrow)"/><text x="1120.0" y="454" font-family="'IBM Plex Sans','Helvetica Neue',Arial,sans-serif" font-size="11.5" fill="#1C1A17" text-anchor="middle" font-weight="400">nouvelle demande</text><line x1="40" y1="500" x2="1400" y2="500" stroke="#D9D4C9" stroke-width="1"/><rect x="40" y="491" width="14" height="2.2" rx="0" fill="#E53935" stroke="none" stroke-width="0"/><text x="62" y="496" font-family="'IBM Plex Sans','Helvetica Neue',Arial,sans-serif" font-size="10.5" fill="#6E6A62" text-anchor="start" font-weight="700" letter-spacing="1.3">ACCEPTATION ET MISE EN ROUTE</text><rect x="1234.5" y="512" width="11" height="152" rx="0" fill="#FFFFFF" stroke="#1C1A17" stroke-width="1.4"/><rect x="574.5" y="536" width="11" height="148" rx="0" fill="#FFFFFF" stroke="#1C1A17" stroke-width="1.4"/><rect x="994.5" y="646" width="11" height="40" rx="0" fill="#FFFFFF" stroke="#1C1A17" stroke-width="1.4"/><rect x="324.5" y="660" width="11" height="30" rx="0" fill="#FFFFFF" stroke="#1C1A17" stroke-width="1.4"/><line x1="1240" y1="526" x2="580" y2="526" stroke="#1C1A17" stroke-width="1.5" marker-end="url(#arrow)"/><text x="910.0" y="518" font-family="'IBM Plex Mono','DejaVu Sans Mono',monospace" font-size="11.5" fill="#1C1A17" text-anchor="middle" font-weight="400">POST /requests/:id/accept</text><rect x="500" y="548" width="800" height="62" rx="0" fill="none" stroke="#6E6A62" stroke-width="1.2" stroke-dasharray="5 4"/><rect x="500" y="548" width="52" height="19" rx="0" fill="#F6F4EF" stroke="#6E6A62" stroke-width="1.2"/><text x="526" y="561.5" font-family="'IBM Plex Sans','Helvetica Neue',Arial,sans-serif" font-size="10.5" fill="#1C1A17" text-anchor="middle" font-weight="700">alt</text><text x="560" y="561.5" font-family="'IBM Plex Sans','Helvetica Neue',Arial,sans-serif" font-size="10.5" fill="#6E6A62" text-anchor="start" font-weight="400">[le garage ne peut pas intervenir]</text><line x1="1240" y1="588" x2="580" y2="588" stroke="#1C1A17" stroke-width="1.5" marker-end="url(#arrow)"/><text x="910.0" y="580" font-family="'IBM Plex Mono','DejaVu Sans Mono',monospace" font-size="11.5" fill="#1C1A17" text-anchor="middle" font-weight="400">POST /requests/:id/decline</text><text x="900" y="604" font-family="'IBM Plex Sans','Helvetica Neue',Arial,sans-serif" font-size="10" fill="#A39D91" text-anchor="middle" font-weight="400" font-style="italic">la demande retourne en pending, sans perdre son journal</text><line x1="1240" y1="634" x2="580" y2="634" stroke="#1C1A17" stroke-width="1.5" marker-end="url(#arrow)"/><text x="910.0" y="626" font-family="'IBM Plex Mono','DejaVu Sans Mono',monospace" font-size="11.5" fill="#1C1A17" text-anchor="middle" font-weight="400">POST /requests/:id/en-route</text><line x1="580" y1="656" x2="1000" y2="656" stroke="#1C1A17" stroke-width="1.5" marker-end="url(#arrow)"/><text x="790.0" y="648" font-family="'IBM Plex Mono','DejaVu Sans Mono',monospace" font-size="11.5" fill="#1C1A17" text-anchor="middle" font-weight="400">emit request:event</text><line x1="1000" y1="678" x2="330" y2="678" stroke="#1C1A17" stroke-width="1.5" stroke-dasharray="6 4" marker-end="url(#arrow)"/><text x="665.0" y="670" font-family="'IBM Plex Sans','Helvetica Neue',Arial,sans-serif" font-size="11.5" fill="#1C1A17" text-anchor="middle" font-weight="400">garagiste en route</text><line x1="40" y1="714" x2="1400" y2="714" stroke="#D9D4C9" stroke-width="1"/><rect x="40" y="705" width="14" height="2.2" rx="0" fill="#E53935" stroke="none" stroke-width="0"/><text x="62" y="710" font-family="'IBM Plex Sans','Helvetica Neue',Arial,sans-serif" font-size="10.5" fill="#6E6A62" text-anchor="start" font-weight="700" letter-spacing="1.3">SUIVI EN TEMPS RÉEL</text><rect x="1234.5" y="726" width="11" height="180" rx="0" fill="#FFFFFF" stroke="#1C1A17" stroke-width="1.4"/><rect x="994.5" y="726" width="11" height="180" rx="0" fill="#FFFFFF" stroke="#1C1A17" stroke-width="1.4"/><rect x="574.5" y="726" width="11" height="180" rx="0" fill="#FFFFFF" stroke="#1C1A17" stroke-width="1.4"/><rect x="324.5" y="726" width="11" height="180" rx="0" fill="#FFFFFF" stroke="#1C1A17" stroke-width="1.4"/><rect x="180" y="736" width="1120" height="128" rx="0" fill="none" stroke="#6E6A62" stroke-width="1.2" stroke-dasharray="5 4"/><rect x="180" y="736" width="52" height="19" rx="0" fill="#F6F4EF" stroke="#6E6A62" stroke-width="1.2"/><text x="206" y="749.5" font-family="'IBM Plex Sans','Helvetica Neue',Arial,sans-serif" font-size="10.5" fill="#1C1A17" text-anchor="middle" font-weight="700">loop</text><text x="240" y="749.5" font-family="'IBM Plex Sans','Helvetica Neue',Arial,sans-serif" font-size="10.5" fill="#6E6A62" text-anchor="start" font-weight="400">[toutes les 4 s et au-delà de 15 m parcourus]</text><line x1="1240" y1="770" x2="1000" y2="770" stroke="#1C1A17" stroke-width="1.5" marker-end="url(#arrow)"/><text x="1120.0" y="762" font-family="'IBM Plex Mono','DejaVu Sans Mono',monospace" font-size="11.5" fill="#1C1A17" text-anchor="middle" font-weight="400">emit request:position</text><line x1="1000" y1="794" x2="580" y2="794" stroke="#1C1A17" stroke-width="1.5" marker-end="url(#arrow)"/><text x="790.0" y="786" font-family="'IBM Plex Sans','Helvetica Neue',Arial,sans-serif" font-size="11.5" fill="#1C1A17" text-anchor="middle" font-weight="400">enregistre position_pings</text><line x1="580" y1="818" x2="1000" y2="818" stroke="#1C1A17" stroke-width="1.5" marker-end="url(#arrow)"/><text x="790.0" y="810" font-family="'IBM Plex Sans','Helvetica Neue',Arial,sans-serif" font-size="11.5" fill="#1C1A17" text-anchor="middle" font-weight="400">calcule les deux ETA</text><text x="790.0" y="832" font-family="'IBM Plex Sans','Helvetica Neue',Arial,sans-serif" font-size="10" fill="#A39D91" text-anchor="middle" font-weight="400" font-style="italic">le serveur, jamais le client</text><line x1="1000" y1="842" x2="330" y2="842" stroke="#1C1A17" stroke-width="1.5" marker-end="url(#arrow)"/><text x="665.0" y="834" font-family="'IBM Plex Mono','DejaVu Sans Mono',monospace" font-size="11.5" fill="#1C1A17" text-anchor="middle" font-weight="400">emit request:tracking</text><text x="665.0" y="856" font-family="'IBM Plex Sans','Helvetica Neue',Arial,sans-serif" font-size="10" fill="#A39D91" text-anchor="middle" font-weight="400" font-style="italic">toClient · toGarage · emittedAt</text><line x1="40" y1="896" x2="1400" y2="896" stroke="#D9D4C9" stroke-width="1"/><rect x="40" y="887" width="14" height="2.2" rx="0" fill="#E53935" stroke="none" stroke-width="0"/><text x="62" y="892" font-family="'IBM Plex Sans','Helvetica Neue',Arial,sans-serif" font-size="10.5" fill="#6E6A62" text-anchor="start" font-weight="700" letter-spacing="1.3">RECONNAISSANCE ET CLÔTURE</text><rect x="324.5" y="908" width="11" height="206" rx="0" fill="#FFFFFF" stroke="#1C1A17" stroke-width="1.4"/><rect x="574.5" y="932" width="11" height="182" rx="0" fill="#FFFFFF" stroke="#1C1A17" stroke-width="1.4"/><rect x="794.5" y="1030" width="11" height="82" rx="0" fill="#FFFFFF" stroke="#1C1A17" stroke-width="1.4"/><rect x="1234.5" y="908" width="11" height="206" rx="0" fill="#FFFFFF" stroke="#1C1A17" stroke-width="1.4"/><text x="60" y="912" font-family="'IBM Plex Sans','Helvetica Neue',Arial,sans-serif" font-size="11" fill="#C62A26" text-anchor="start" font-weight="400" font-style="italic">distance entre les deux parties &lt; 120 m</text><line x1="330" y1="940" x2="110" y2="940" stroke="#1C1A17" stroke-width="1.5" marker-end="url(#arrow)"/><text x="220.0" y="932" font-family="'IBM Plex Sans','Helvetica Neue',Arial,sans-serif" font-size="11.5" fill="#1C1A17" text-anchor="middle" font-weight="400">« vous le voyez ? »</text><line x1="110" y1="964" x2="330" y2="964" stroke="#1C1A17" stroke-width="1.5" marker-end="url(#arrow)"/><text x="220.0" y="956" font-family="'IBM Plex Sans','Helvetica Neue',Arial,sans-serif" font-size="11.5" fill="#1C1A17" text-anchor="middle" font-weight="400">confirme son arrivée</text><line x1="330" y1="988" x2="580" y2="988" stroke="#1C1A17" stroke-width="1.5" marker-end="url(#arrow)"/><text x="455.0" y="980" font-family="'IBM Plex Mono','DejaVu Sans Mono',monospace" font-size="11.5" fill="#1C1A17" text-anchor="middle" font-weight="400">POST /requests/:id/arrive</text><text x="455" y="1002" font-family="'IBM Plex Sans','Helvetica Neue',Arial,sans-serif" font-size="10" fill="#A39D91" text-anchor="middle" font-weight="400" font-style="italic">awaiting_confirmation</text><line x1="1240" y1="1026" x2="580" y2="1026" stroke="#1C1A17" stroke-width="1.5" marker-end="url(#arrow)"/><text x="910.0" y="1018" font-family="'IBM Plex Mono','DejaVu Sans Mono',monospace" font-size="11.5" fill="#1C1A17" text-anchor="middle" font-weight="400">POST /requests/:id/arrive</text><text x="910.0" y="1040" font-family="'IBM Plex Sans','Helvetica Neue',Arial,sans-serif" font-size="10" fill="#A39D91" text-anchor="middle" font-weight="400" font-style="italic">seconde confirmation</text><line x1="580" y1="1056" x2="800" y2="1056" stroke="#1C1A17" stroke-width="1.5" marker-end="url(#arrow)"/><text x="690.0" y="1048" font-family="'IBM Plex Sans','Helvetica Neue',Arial,sans-serif" font-size="11.5" fill="#1C1A17" text-anchor="middle" font-weight="400">UPDATE status = 'closed'</text><text x="560" y="1074" font-family="'IBM Plex Sans','Helvetica Neue',Arial,sans-serif" font-size="10" fill="#C62A26" text-anchor="middle" font-weight="400" font-style="italic">la contrainte closed_requires_both_arrivals valide la transition</text><line x1="580" y1="1098" x2="800" y2="1098" stroke="#1C1A17" stroke-width="1.5" marker-end="url(#arrow)"/><text x="690.0" y="1090" font-family="'IBM Plex Sans','Helvetica Neue',Arial,sans-serif" font-size="11.5" fill="#1C1A17" text-anchor="middle" font-weight="400">INSERT loyalty_ledger (state = 'pending')</text><text x="560" y="1116" font-family="'IBM Plex Sans','Helvetica Neue',Arial,sans-serif" font-size="10" fill="#A39D91" text-anchor="middle" font-weight="400" font-style="italic">clé d'idempotence · 50 points · confirmés après 24 h</text></svg>